<svg width="16" height="13" viewBox="0 0 16 13" fill="none" xmlns="http://www.w3.org/2000/svg">
<path d="M14.7489 10.8491C14.7489 10.9914 14.6233 11.117 14.481 11.117H2.1596C2.0173 11.117 1.89174 10.9914 1.89174 10.8491V4.42057C2.06752 4.62146 2.26004 4.80561 2.46931 4.97302C3.66629 5.89378 4.87165 6.83128 6.03516 7.80226C6.66295 8.32961 7.44141 8.97414 8.31194 8.97414H8.32031H8.32868C9.19922 8.97414 9.97768 8.32961 10.6055 7.80226C11.769 6.83128 12.9743 5.89378 14.1713 4.97302C14.3806 4.80561 14.5731 4.62146 14.7489 4.42057V10.8491ZM14.7489 2.05171C14.7489 2.7632 14.0625 3.69233 13.5184 4.11923C12.3968 4.99813 11.2751 5.88541 10.1618 6.77269C9.71819 7.13262 8.91462 7.90271 8.32868 7.90271H8.32031H8.31194C7.726 7.90271 6.92243 7.13262 6.4788 6.77269C5.36551 5.88541 4.24386 4.99813 3.12221 4.11923C2.36886 3.52492 1.89174 2.69624 1.89174 1.742C1.89174 1.5997 2.0173 1.47414 2.1596 1.47414H14.481C14.7991 1.47414 14.7489 1.84244 14.7489 2.05171ZM15.8203 1.742C15.8203 1.00539 15.2176 0.40271 14.481 0.40271H2.1596C1.42299 0.40271 0.820312 1.00539 0.820312 1.742V10.8491C0.820312 11.5857 1.42299 12.1884 2.1596 12.1884H14.481C15.2176 12.1884 15.8203 11.5857 15.8203 10.8491V1.742Z" fill="#3E9CDC"/>
</svg>
