<svg width="12" height="14" viewBox="0 0 12 14" fill="none" xmlns="http://www.w3.org/2000/svg">
<path d="M11.1826 9.28625C11.1826 9.93665 11.0596 10.5079 10.8135 11.0001C10.5674 11.4923 10.2363 11.8995 9.82031 12.2218C9.32812 12.6085 8.78613 12.8839 8.19434 13.048C7.6084 13.212 6.86133 13.2941 5.95312 13.2941H0.714844V0.207153H5.33789C6.29883 0.207153 7.02539 0.245239 7.51758 0.321411C8.01562 0.391724 8.48145 0.544067 8.91504 0.778442C9.38379 1.0304 9.73242 1.36731 9.96094 1.78918C10.1953 2.21106 10.3125 2.69739 10.3125 3.24817C10.3125 3.88684 10.1514 4.4552 9.8291 4.95325C9.5127 5.45129 9.07324 5.8175 8.51074 6.05188V6.12219C9.31934 6.29211 9.9668 6.64075 10.4531 7.16809C10.9395 7.68958 11.1826 8.39563 11.1826 9.28625ZM6.97266 3.90735C6.97266 3.69641 6.91699 3.47961 6.80566 3.25696C6.7002 3.0343 6.5332 2.87317 6.30469 2.77356C6.08789 2.67981 5.83008 2.63 5.53125 2.62415C5.23828 2.61243 4.79883 2.60657 4.21289 2.60657H3.98438V5.37512H4.39746C4.95996 5.37512 5.35254 5.36926 5.5752 5.35754C5.80371 5.34583 6.03809 5.2843 6.27832 5.17297C6.54199 5.04993 6.72363 4.88 6.82324 4.66321C6.92285 4.44641 6.97266 4.19446 6.97266 3.90735ZM7.79883 9.22473C7.79883 8.82043 7.7168 8.50403 7.55273 8.27551C7.38867 8.047 7.14258 7.87415 6.81445 7.75696C6.61523 7.68079 6.33984 7.63977 5.98828 7.63391C5.64258 7.62219 5.17676 7.61633 4.59082 7.61633H3.98438V10.8947H4.16016C5.01562 10.8947 5.60742 10.8888 5.93555 10.8771C6.26367 10.8654 6.59766 10.7863 6.9375 10.6398C7.23633 10.5109 7.45312 10.3234 7.58789 10.0773C7.72852 9.82532 7.79883 9.54114 7.79883 9.22473Z" fill="#3E9CDC"/>
</svg>
