<svg width="18" height="21" viewBox="0 0 18 21" fill="none" xmlns="http://www.w3.org/2000/svg">
<path d="M16.8136 4.60899L13.3315 1.12685C12.9185 0.713902 12.0926 0.36792 11.5011 0.36792H1.50112C0.909598 0.36792 0.429688 0.847831 0.429688 1.43935V19.2965C0.429688 19.888 0.909598 20.3679 1.50112 20.3679H16.5011C17.0926 20.3679 17.5725 19.888 17.5725 19.2965V6.43935C17.5725 5.84783 17.2266 5.02194 16.8136 4.60899ZM11.8583 1.88578C12.048 1.95274 12.2377 2.05319 12.3158 2.13131L15.8092 5.62462C15.8873 5.70274 15.9877 5.89247 16.0547 6.08221H11.8583V1.88578ZM16.144 18.9394H1.85826V1.79649H10.4297V6.43935C10.4297 7.03087 10.9096 7.51078 11.5011 7.51078H16.144V18.9394ZM4.7154 9.29649V10.0108C4.7154 10.2117 4.87165 10.3679 5.07255 10.3679H12.9297C13.1306 10.3679 13.2868 10.2117 13.2868 10.0108V9.29649C13.2868 9.0956 13.1306 8.93935 12.9297 8.93935H5.07255C4.87165 8.93935 4.7154 9.0956 4.7154 9.29649ZM12.9297 11.7965H5.07255C4.87165 11.7965 4.7154 11.9527 4.7154 12.1536V12.8679C4.7154 13.0688 4.87165 13.2251 5.07255 13.2251H12.9297C13.1306 13.2251 13.2868 13.0688 13.2868 12.8679V12.1536C13.2868 11.9527 13.1306 11.7965 12.9297 11.7965ZM12.9297 14.6536H5.07255C4.87165 14.6536 4.7154 14.8099 4.7154 15.0108V15.7251C4.7154 15.926 4.87165 16.0822 5.07255 16.0822H12.9297C13.1306 16.0822 13.2868 15.926 13.2868 15.7251V15.0108C13.2868 14.8099 13.1306 14.6536 12.9297 14.6536Z" fill="#272733"/>
</svg>
