<svg width="40" height="43" viewBox="0 0 40 43" fill="none" xmlns="http://www.w3.org/2000/svg">
<path d="M15.9926 23.8724V22.5867C15.9926 22.2251 16.2738 21.9438 16.6354 21.9438H30.7783C31.1399 21.9438 31.4211 22.2251 31.4211 22.5867V23.8724C31.4211 24.234 31.1399 24.5153 30.7783 24.5153H16.6354C16.2738 24.5153 15.9926 24.234 15.9926 23.8724Z" fill="white"/>
<path d="M16.6354 27.0867H30.7783C31.1399 27.0867 31.4211 27.368 31.4211 27.7296V29.0153C31.4211 29.3769 31.1399 29.6581 30.7783 29.6581H16.6354C16.2738 29.6581 15.9926 29.3769 15.9926 29.0153V27.7296C15.9926 27.368 16.2738 27.0867 16.6354 27.0867Z" fill="white"/>
<path d="M16.6354 32.2296H30.7783C31.1399 32.2296 31.4211 32.5108 31.4211 32.8724V34.1581C31.4211 34.5197 31.1399 34.801 30.7783 34.801H16.6354C16.2738 34.801 15.9926 34.5197 15.9926 34.1581V32.8724C15.9926 32.5108 16.2738 32.2296 16.6354 32.2296Z" fill="white"/>
<path fill-rule="evenodd" clip-rule="evenodd" d="M8.27828 15.8148C4.18309 15.8148 0.863281 12.495 0.863281 8.39979C0.863281 4.3046 4.18309 0.984787 8.27828 0.984787C11.7223 0.984787 14.6179 3.33276 15.4517 6.51528H28.2069C29.2716 6.51528 30.7582 7.13804 31.5015 7.88135L37.7694 14.1492C38.5127 14.8925 39.1354 16.3791 39.1354 17.4438V40.5867C39.1354 41.6514 38.2716 42.5153 37.2069 42.5153H10.2069C9.14212 42.5153 8.27828 41.6514 8.27828 40.5867L8.27828 15.8148ZM10.8497 15.3568C13.4722 14.3871 15.3964 11.977 15.6619 9.08671H26.2783V17.4438C26.2783 18.5086 27.1421 19.3724 28.2069 19.3724H36.564V39.9438H10.8497V15.3568ZM29.6734 9.68938C29.5327 9.54876 29.1912 9.36796 28.8497 9.24742V16.801H36.4033C36.2827 16.4595 36.1019 16.118 35.9613 15.9773L29.6734 9.68938ZM9.27828 9.39983H13.2783V7.39983H9.27828V3.39983H7.27828V7.39983H3.27828V9.39983H7.27828V13.3998H9.27828V9.39983Z" fill="white"/>
</svg>
