<svg width="31" height="32" viewBox="0 0 31 32" fill="none" xmlns="http://www.w3.org/2000/svg">
<path d="M25.7846 23.9643C25.7846 25.3705 24.6194 26.5357 23.2132 26.5357C21.8069 26.5357 20.6417 25.3705 20.6417 23.9643C20.6417 22.558 21.8069 21.3928 23.2132 21.3928C24.6194 21.3928 25.7846 22.558 25.7846 23.9643ZM10.356 8.5357C10.356 9.94195 9.19085 11.1071 7.7846 11.1071C6.37835 11.1071 5.21317 9.94195 5.21317 8.5357C5.21317 7.12945 6.37835 5.96427 7.7846 5.96427C9.19085 5.96427 10.356 7.12945 10.356 8.5357ZM30.9275 23.9643C30.9275 19.7053 27.4721 16.25 23.2132 16.25C18.9542 16.25 15.4989 19.7053 15.4989 23.9643C15.4989 28.2232 18.9542 31.6786 23.2132 31.6786C27.4721 31.6786 30.9275 28.2232 30.9275 23.9643ZM28.9989 2.10713C28.9989 1.404 28.4163 0.821411 27.7132 0.821411H24.4989C24.0971 0.821411 23.7154 1.0223 23.4743 1.34373L2.26004 29.6294C2.09933 29.8504 1.99888 30.1116 1.99888 30.3928C1.99888 31.096 2.58147 31.6786 3.2846 31.6786H6.49888C6.90067 31.6786 7.28237 31.4777 7.52344 31.1562L28.7377 2.87052C28.8984 2.64954 28.9989 2.38838 28.9989 2.10713ZM15.4989 8.5357C15.4989 4.27677 12.0435 0.821411 7.7846 0.821411C3.52567 0.821411 0.0703125 4.27677 0.0703125 8.5357C0.0703125 12.7946 3.52567 16.25 7.7846 16.25C12.0435 16.25 15.4989 12.7946 15.4989 8.5357Z" fill="white"/>
</svg>
