<svg width="35" height="35" viewBox="0 0 35 35" fill="none" xmlns="http://www.w3.org/2000/svg">
<path d="M23.928 14.9286C23.928 19.8906 19.8901 23.9286 14.928 23.9286C9.96596 23.9286 5.92801 19.8906 5.92801 14.9286C5.92801 9.96651 9.96596 5.92856 14.928 5.92856C19.8901 5.92856 23.928 9.96651 23.928 14.9286ZM34.2137 31.6429C34.2137 30.9598 33.9325 30.2969 33.4704 29.8348L26.5798 22.9442C28.207 20.5937 29.0709 17.7812 29.0709 14.9286C29.0709 7.11383 22.7427 0.785706 14.928 0.785706C7.11328 0.785706 0.785156 7.11383 0.785156 14.9286C0.785156 22.7433 7.11328 29.0714 14.928 29.0714C17.7807 29.0714 20.5932 28.2076 22.9436 26.5803L29.8343 33.4509C30.2963 33.933 30.9593 34.2143 31.6423 34.2143C33.0486 34.2143 34.2137 33.0491 34.2137 31.6429Z" fill="white"/>
</svg>
