<svg width="40" height="27" viewBox="0 0 40 27" fill="none" xmlns="http://www.w3.org/2000/svg">
<path d="M15.9286 18.5357V16.6071H18.5V10.8214H18.4598C18.1384 11.3237 17.8371 11.5446 17.3549 11.9665L15.808 10.3594L18.7812 7.60714H21.0714V16.6071H23.6429V18.5357H15.9286ZM26.2143 13.3929C26.2143 9.73661 24.0045 5.03571 19.7857 5.03571C15.567 5.03571 13.3571 9.73661 13.3571 13.3929C13.3571 17.0491 15.567 21.75 19.7857 21.75C24.0045 21.75 26.2143 17.0491 26.2143 13.3929ZM36.5 18.5357C33.6674 18.5357 31.3571 20.846 31.3571 23.6786H8.21429C8.21429 20.846 5.90402 18.5357 3.07143 18.5357V8.25C5.90402 8.25 8.21429 5.93973 8.21429 3.10714H31.3571C31.3571 5.93973 33.6674 8.25 36.5 8.25V18.5357ZM39.0714 1.82143C39.0714 1.1183 38.4888 0.535713 37.7857 0.535713H1.78571C1.08259 0.535713 0.5 1.1183 0.5 1.82143V24.9643C0.5 25.6674 1.08259 26.25 1.78571 26.25H37.7857C38.4888 26.25 39.0714 25.6674 39.0714 24.9643V1.82143Z" fill="white"/>
</svg>
