<svg width="19" height="18" viewBox="0 0 19 18" fill="none" xmlns="http://www.w3.org/2000/svg">
<path d="M9.33903 0C10.7493 0 12.0911 0.323103 13.2951 0.901077C13.484 0.986269 13.674 1.08823 13.8622 1.19028L13.0366 1.92159L11.799 0.646297L9.66628 2.51651L8.4104 1.17307L4.48874 4.65889L6.99952 7.39646L6.01934 8.24641L8.49648 10.984L7.51621 11.8336L11.0596 15.7274L13.1568 13.823L14.9808 15.8639C14.6193 16.136 14.2237 16.4086 13.7942 16.6462C12.4868 17.3773 10.973 17.8016 9.3564 17.8016C4.38517 17.8016 0.343807 13.8066 0.343807 8.89314C0.326252 4.01286 4.36833 0 9.33903 0ZM7.68757 8.34864L9.83763 6.44418L11.7644 8.56952L9.61393 10.4738L7.68757 8.34864ZM9.21879 12.0214L11.3514 10.1001L13.2951 12.2253L11.145 14.1298L9.21879 12.0214ZM6.15768 4.72713L8.30712 2.82267L10.2335 4.948L8.08333 6.85238L6.15768 4.72713ZM10.0957 3.70661L11.6954 2.27842L13.1405 3.85978L11.5408 5.30484L10.0957 3.70661ZM12.9512 10.2528L14.5504 8.82456L15.9954 10.4224L14.3956 11.8516L12.9512 10.2528ZM14.3614 13.4668L15.9612 12.0382L17.4051 13.6195L15.8059 15.0644L14.3614 13.4668ZM15.0151 6.12107L16.0813 5.16879L17.0442 6.22339L15.9781 7.17531L15.0151 6.12107ZM13.6391 2.97548L14.7054 2.00651L15.669 3.07753L14.6018 4.02972L13.6391 2.97548ZM16.3737 9.26693L17.44 8.31474L18.4203 9.36899L17.3371 10.3209L16.3737 9.26693ZM11.5751 6.90341L13.1749 5.47513L14.6193 7.05614L13.0202 8.48469L11.5751 6.90341Z" fill="#3E9CDC"/>
</svg>
