<svg width="15" height="18" viewBox="0 0 15 18" fill="none" xmlns="http://www.w3.org/2000/svg">
<path fill-rule="evenodd" clip-rule="evenodd" d="M0.781452 8.93064C0.781452 7.94658 0.864649 7.32207 2.91972 5.80081C4.62111 4.54132 10.0746 0.237366 10.0746 0.237366V7.42203H14.2219V17.7626H2.07679C1.36437 17.7626 0.78125 17.1843 0.78125 16.4778L0.781452 8.9307V8.93064Z" fill="#3E9CDC"/>
<path fill-rule="evenodd" clip-rule="evenodd" d="M10.074 7.42194V11.5849L2.45312 16.7335L12.0884 13.6246V7.42194H10.074Z" fill="black" fill-opacity="0.2"/>
<path fill-rule="evenodd" clip-rule="evenodd" d="M6.59025 7.20678C7.03594 6.68017 7.68681 6.4943 8.04419 6.79166C8.40158 7.08909 8.33014 7.75713 7.88445 8.28374C7.43909 8.81029 6.78796 8.99596 6.43057 8.69853C6.07318 8.40117 6.14482 7.73327 6.59025 7.20672V7.20678Z" fill="#231F20"/>
</svg>
