<svg width="21" height="20" viewBox="0 0 21 20" fill="none" xmlns="http://www.w3.org/2000/svg">
<path d="M16.9125 13.4558C16.9726 13.8435 16.8457 14.0076 16.7175 14.0076C16.5892 14.0076 16.4035 13.8499 16.1964 13.5372C15.9894 13.2245 15.9186 12.8769 16.0188 12.6985C16.0565 12.6368 16.1174 12.5914 16.1888 12.5719C16.2602 12.5524 16.3366 12.5603 16.4022 12.5939C16.7428 12.7179 16.8764 13.2232 16.9125 13.4558ZM15.0248 14.3061C15.435 14.6408 15.5592 15.0388 15.3428 15.3192C15.2769 15.3976 15.1929 15.46 15.0975 15.5013C15.0021 15.5426 14.8981 15.5616 14.7937 15.557C14.5649 15.5573 14.3432 15.4801 14.1672 15.3386C13.7958 15.0246 13.6863 14.5141 13.9294 14.2247C13.9831 14.1653 14.0501 14.1185 14.1254 14.0881C14.2007 14.0576 14.2821 14.0442 14.3636 14.0489C14.6084 14.0568 14.8425 14.1478 15.0248 14.3061ZM14.3409 17.5367C16.1029 17.5367 18.0146 18.1208 20.1321 19.9351C20.3431 20.116 20.625 19.8911 20.4406 19.665C18.3606 17.1258 16.4329 16.6412 14.5185 16.2328C12.1727 15.7314 10.965 14.4534 10.1194 13.0513C9.95237 12.7722 9.87622 12.8213 9.86153 13.1805C9.84749 13.7131 9.88911 14.2456 9.98577 14.77C9.89092 14.77 9.79473 14.77 9.69988 14.77C8.49769 14.77 7.32249 14.4252 6.3229 13.7791C5.32331 13.133 4.54422 12.2147 4.08416 11.1404C3.6241 10.066 3.50373 8.88379 3.73826 7.74324C3.9728 6.60269 4.55171 5.55503 5.40179 4.73274C6.25188 3.91045 7.33495 3.35046 8.51404 3.1236C9.69314 2.89673 10.9153 3.01316 12.026 3.45818C13.1367 3.9032 14.086 4.65682 14.7539 5.62373C15.4218 6.59064 15.7783 7.72742 15.7783 8.89031C15.7789 9.1187 15.766 9.34694 15.7396 9.5739C15.0992 9.49591 14.4521 9.48421 13.8092 9.53902C13.578 9.5584 13.6114 9.66824 13.7851 9.69279C15.789 10.043 17.1757 11.2435 17.4909 13.4338C17.4921 13.4449 17.4968 13.4554 17.5044 13.4637C17.5121 13.4721 17.5222 13.4779 17.5335 13.4803C17.5447 13.4828 17.5565 13.4817 17.5671 13.4773C17.5777 13.4729 17.5866 13.4654 17.5925 13.4558C18.6349 11.7702 19.0713 9.79832 18.8336 7.84768C18.5959 5.89703 17.6975 4.07732 16.2785 2.67239C14.8595 1.26746 12.9997 0.356295 10.9892 0.0810301C8.97869 -0.194235 6.93054 0.181874 5.16421 1.15069C3.39787 2.11951 2.01267 3.62656 1.22466 5.43677C0.43666 7.24698 0.290163 9.25857 0.808024 11.1578C1.32588 13.057 2.47898 14.737 4.08746 15.9358C5.69594 17.1346 7.66935 17.7847 9.69988 17.7848C11.0425 17.7887 12.3797 17.5354 14.3409 17.5354V17.5367Z" fill="#3E9CDC"/>
</svg>
