<svg width="245" height="21" viewBox="0 0 245 21" fill="none" xmlns="http://www.w3.org/2000/svg">
<path d="M0.689156 20.5V0.619999H5.28116V16.468H14.9132V20.5H0.689156ZM24.5183 20.668C23.0436 20.668 21.6996 20.3787 20.4863 19.8C19.2729 19.2213 18.2369 18.4653 17.3783 17.532C16.5196 16.58 15.8476 15.4973 15.3623 14.284C14.8956 13.0707 14.6623 11.82 14.6623 10.532C14.6623 9.22533 14.9049 7.96533 15.3903 6.752C15.8943 5.53867 16.5849 4.47467 17.4623 3.56C18.3583 2.62667 19.4129 1.88933 20.6263 1.348C21.8396 0.787999 23.1649 0.507999 24.6023 0.507999C26.0769 0.507999 27.4209 0.797332 28.6343 1.376C29.8476 1.95467 30.8836 2.72 31.7423 3.672C32.6009 4.624 33.2636 5.70667 33.7303 6.92C34.1969 8.13333 34.4303 9.36533 34.4303 10.616C34.4303 11.9227 34.1783 13.1827 33.6743 14.396C33.1889 15.6093 32.5076 16.6827 31.6303 17.616C30.7529 18.5307 29.7076 19.268 28.4943 19.828C27.2809 20.388 25.9556 20.668 24.5183 20.668ZM19.3383 10.588C19.3383 11.3533 19.4503 12.1 19.6743 12.828C19.8983 13.5373 20.2249 14.172 20.6543 14.732C21.1023 15.292 21.6529 15.74 22.3063 16.076C22.9596 16.412 23.7063 16.58 24.5463 16.58C25.4236 16.58 26.1889 16.4027 26.8423 16.048C27.4956 15.6933 28.0369 15.236 28.4663 14.676C28.8956 14.0973 29.2129 13.4533 29.4183 12.744C29.6423 12.016 29.7543 11.2787 29.7543 10.532C29.7543 9.76667 29.6423 9.02933 29.4183 8.32C29.1943 7.592 28.8583 6.95733 28.4103 6.416C27.9623 5.856 27.4116 5.41733 26.7583 5.1C26.1236 4.764 25.3863 4.596 24.5463 4.596C23.6689 4.596 22.9036 4.77333 22.2503 5.128C21.6156 5.464 21.0743 5.912 20.6263 6.472C20.1969 7.032 19.8703 7.676 19.6463 8.404C19.4409 9.11333 19.3383 9.84133 19.3383 10.588ZM37.0837 20.5V0.619999H46.0437C46.977 0.619999 47.8357 0.815999 48.6197 1.208C49.4224 1.6 50.113 2.11333 50.6917 2.748C51.2704 3.38267 51.7184 4.10133 52.0357 4.904C52.3717 5.70667 52.5397 6.51867 52.5397 7.34C52.5397 7.956 52.465 8.55333 52.3157 9.132C52.1664 9.692 51.9517 10.224 51.6717 10.728C51.3917 11.232 51.0464 11.6893 50.6357 12.1C50.2437 12.492 49.7957 12.828 49.2917 13.108L53.6597 20.5H48.4797L44.6717 14.088H41.6757V20.5H37.0837ZM41.6757 10.084H45.8757C46.417 10.084 46.8837 9.832 47.2757 9.328C47.6677 8.80533 47.8637 8.14267 47.8637 7.34C47.8637 6.51867 47.6397 5.86533 47.1917 5.38C46.7437 4.89467 46.2584 4.652 45.7357 4.652H41.6757V10.084ZM69.8135 16.468V20.5H55.8415V0.619999H69.5615V4.652H60.4335V8.516H68.2735V12.24H60.4335V16.468H69.8135ZM88.2832 20.5V8.6L83.9712 17.252H81.5072L77.1952 8.6V20.5H72.6032V0.619999H77.5872L82.7392 11.008L87.9192 0.619999H92.8752V20.5H88.2832ZM96.6931 20.5V0.619999H101.285V20.5H96.6931ZM105.088 20.5V0.619999H113.572C114.524 0.619999 115.392 0.815999 116.176 1.208C116.978 1.6 117.66 2.11333 118.22 2.748C118.798 3.38267 119.246 4.10133 119.564 4.904C119.9 5.70667 120.068 6.51867 120.068 7.34C120.068 8.21733 119.909 9.05733 119.592 9.86C119.293 10.6627 118.864 11.3813 118.304 12.016C117.762 12.6507 117.1 13.1547 116.316 13.528C115.532 13.9013 114.664 14.088 113.712 14.088H109.68V20.5H105.088ZM109.68 10.084H113.432C113.973 10.084 114.44 9.85067 114.832 9.384C115.224 8.91733 115.42 8.236 115.42 7.34C115.42 6.87333 115.354 6.472 115.224 6.136C115.112 5.8 114.953 5.52 114.748 5.296C114.542 5.072 114.309 4.91333 114.048 4.82C113.786 4.708 113.525 4.652 113.264 4.652H109.68V10.084ZM134.461 6.444C134.405 6.36933 134.209 6.22933 133.873 6.024C133.537 5.81867 133.117 5.604 132.613 5.38C132.109 5.156 131.558 4.96 130.961 4.792C130.364 4.624 129.766 4.54 129.169 4.54C127.526 4.54 126.705 5.09067 126.705 6.192C126.705 6.528 126.789 6.808 126.957 7.032C127.144 7.256 127.405 7.46133 127.741 7.648C128.096 7.816 128.534 7.97467 129.057 8.124C129.58 8.27333 130.186 8.44133 130.877 8.628C131.829 8.88933 132.688 9.17867 133.453 9.496C134.218 9.79467 134.862 10.1773 135.385 10.644C135.926 11.092 136.337 11.6427 136.617 12.296C136.916 12.9493 137.065 13.7333 137.065 14.648C137.065 15.768 136.85 16.72 136.421 17.504C136.01 18.2693 135.46 18.8947 134.769 19.38C134.078 19.8467 133.285 20.192 132.389 20.416C131.493 20.6213 130.569 20.724 129.617 20.724C128.889 20.724 128.142 20.668 127.377 20.556C126.612 20.444 125.865 20.2853 125.137 20.08C124.409 19.856 123.7 19.5947 123.009 19.296C122.337 18.9973 121.712 18.652 121.133 18.26L123.149 14.256C123.224 14.3493 123.466 14.5267 123.877 14.788C124.288 15.0493 124.792 15.3107 125.389 15.572C126.005 15.8333 126.686 16.0667 127.433 16.272C128.18 16.4773 128.936 16.58 129.701 16.58C131.325 16.58 132.137 16.0853 132.137 15.096C132.137 14.7227 132.016 14.4147 131.773 14.172C131.53 13.9293 131.194 13.7147 130.765 13.528C130.336 13.3227 129.822 13.136 129.225 12.968C128.646 12.8 128.012 12.6133 127.321 12.408C126.406 12.128 125.613 11.8293 124.941 11.512C124.269 11.176 123.709 10.7933 123.261 10.364C122.832 9.93467 122.505 9.44 122.281 8.88C122.076 8.32 121.973 7.66667 121.973 6.92C121.973 5.87467 122.169 4.95067 122.561 4.148C122.953 3.34533 123.485 2.67333 124.157 2.132C124.829 1.572 125.604 1.152 126.481 0.871999C127.377 0.591999 128.32 0.451999 129.309 0.451999C130 0.451999 130.681 0.517332 131.353 0.647999C132.025 0.778666 132.669 0.946666 133.285 1.152C133.901 1.35733 134.47 1.59067 134.993 1.852C135.534 2.11333 136.029 2.37467 136.477 2.636L134.461 6.444ZM148.299 16.58C149.083 16.58 149.746 16.4213 150.287 16.104C150.829 15.768 151.267 15.3293 151.603 14.788C151.939 14.2467 152.173 13.6307 152.303 12.94C152.453 12.2307 152.527 11.512 152.527 10.784V0.619999H157.119V10.784C157.119 12.1653 156.942 13.4533 156.587 14.648C156.251 15.8427 155.719 16.888 154.991 17.784C154.282 18.68 153.367 19.3893 152.247 19.912C151.146 20.416 149.83 20.668 148.299 20.668C146.713 20.668 145.359 20.3973 144.239 19.856C143.119 19.3147 142.205 18.596 141.495 17.7C140.805 16.7853 140.291 15.7307 139.955 14.536C139.638 13.3413 139.479 12.0907 139.479 10.784V0.619999H144.071V10.784C144.071 11.5493 144.146 12.2773 144.295 12.968C144.445 13.6587 144.687 14.2747 145.023 14.816C145.359 15.3573 145.789 15.7867 146.311 16.104C146.853 16.4213 147.515 16.58 148.299 16.58ZM176.357 20.5V8.6L172.045 17.252H169.581L165.269 8.6V20.5H160.677V0.619999H165.661L170.813 11.008L175.993 0.619999H180.949V20.5H176.357ZM184.375 20.5V15.936H188.043V20.5H184.375Z" fill="white"/>
<path d="M196.059 9.132V20.5H191.467V0.619999H195.051L204.319 12.296V0.619999H208.911V20.5H205.215L196.059 9.132ZM226.685 16.468V20.5H212.713V0.619999H226.433V4.652H217.305V8.516H225.145V12.24H217.305V16.468H226.685ZM244.622 4.652H238.574V20.5H233.982V4.652H227.906V0.619999H244.622V4.652Z" fill="#42A9ED"/>
</svg>
